<?xml version="1.0" standalone="no"?>
<!DOCTYPE svg PUBLIC "-//W3C//DTD SVG 20010904//EN"
 "http://www.w3.org/TR/2001/REC-SVG-20010904/DTD/svg10.dtd">
<svg version="1.0" xmlns="http://www.w3.org/2000/svg"
 width="1265.000000pt" height="1280.000000pt" viewBox="0 0 1265.000000 1280.000000"
 preserveAspectRatio="xMidYMid meet">
<g transform="translate(0.000000,1280.000000) scale(0.100000,-0.100000)"
fill="#000000" stroke="none">
<path d="M5960 12789 c-52 -5 -158 -13 -235 -19 -253 -20 -764 -106 -915 -154
l-45 -14 75 4 c337 21 429 25 530 24 82 -1 128 3 160 14 53 19 74 20 64 5 -4
-8 29 -10 112 -7 117 4 120 4 178 41 73 45 89 47 41 6 -19 -17 -35 -35 -35
-40 0 -13 217 -11 241 1 10 6 28 27 38 48 17 33 71 94 71 80 0 -3 -12 -32 -26
-63 -20 -46 -22 -60 -12 -66 7 -5 63 -9 123 -9 61 0 116 4 123 9 10 6 8 20
-12 66 -14 31 -26 60 -26 63 0 14 54 -47 71 -80 10 -21 28 -42 38 -48 24 -13
241 -13 241 -1 0 5 -17 23 -37 40 -52 43 -24 39 45 -6 57 -38 58 -38 176 -41
83 -3 116 -1 112 7 -10 15 11 14 64 -5 32 -11 78 -15 160 -14 101 1 193 -3
530 -24 l75 -4 -45 14 c-76 24 -426 93 -605 118 -162 23 -261 33 -565 56 -155
11 -570 11 -710 -1z"/>
<path d="M5941 12603 l-113 -4 -55 -56 c-71 -74 -206 -275 -201 -299 3 -18 15
-19 211 -18 238 2 237 1 257 87 7 29 28 103 47 166 36 120 35 133 -12 129 -11
-1 -71 -4 -134 -5z"/>
<path d="M6181 12593 c-20 -17 -50 -119 -81 -276 -18 -89 -24 -87 225 -87 249
0 243 -2 225 87 -32 157 -62 259 -82 276 -17 14 -41 17 -143 17 -102 0 -126
-3 -144 -17z"/>
<path d="M6542 12602 c-10 -7 -6 -32 21 -123 19 -63 40 -137 47 -166 20 -86
19 -85 257 -87 196 -1 208 0 211 18 5 24 -130 225 -202 299 l-54 57 -99 0
c-54 0 -114 3 -133 5 -19 3 -41 2 -48 -3z"/>
<path d="M5305 12590 c-55 -4 -122 -15 -150 -25 -112 -39 -535 -313 -543 -351
-3 -14 15 -15 165 -8 92 4 177 10 189 14 11 5 69 51 127 103 109 97 219 183
295 231 40 25 56 48 30 44 -7 -1 -58 -4 -113 -8z"/>
<path d="M5485 12581 c-85 -38 -385 -286 -416 -343 -10 -19 -6 -19 194 -16
237 3 218 -4 299 117 28 40 86 116 130 167 l79 94 -123 -1 c-95 0 -132 -4
-163 -18z"/>
<path d="M6958 12506 c44 -51 102 -127 130 -167 81 -121 62 -114 299 -117 200
-3 204 -3 194 16 -17 31 -167 167 -276 249 -138 105 -160 113 -306 113 l-120
0 79 -94z"/>
<path d="M7220 12588 c0 -4 19 -20 43 -34 75 -48 185 -134 294 -231 58 -52
116 -98 127 -103 12 -4 97 -10 189 -14 150 -7 168 -6 165 8 -9 43 -442 318
-558 354 -66 21 -260 36 -260 20z"/>
<path d="M4945 12569 c-16 -5 -47 -7 -67 -3 -21 3 -77 1 -125 -5 -49 -6 -128
-15 -178 -21 -107 -12 -312 -77 -588 -186 -206 -82 -484 -211 -474 -220 3 -3
21 -1 41 6 19 6 77 13 128 14 74 3 106 9 155 30 75 32 82 32 57 5 l-19 -22
114 7 c126 8 132 10 311 114 90 52 237 123 215 105 -5 -5 -68 -44 -140 -86
-71 -43 -141 -87 -155 -97 l-25 -20 90 0 c209 0 208 0 396 126 93 62 231 144
309 183 77 40 140 74 140 76 0 9 -154 3 -185 -6z"/>
<path d="M7520 12577 c0 -4 63 -38 140 -78 78 -39 216 -121 309 -183 188 -126
187 -126 396 -126 l90 0 -25 20 c-14 11 -87 56 -162 101 -76 45 -138 83 -138
85 0 5 108 -46 182 -88 235 -131 222 -126 348 -134 l115 -7 -19 22 c-25 27
-18 27 57 -5 49 -21 81 -27 155 -30 51 -1 109 -8 128 -14 62 -21 48 -3 -25 35
-289 145 -812 341 -976 365 -87 12 -196 22 -300 26 -44 2 -124 6 -177 10 -54
3 -98 4 -98 1z"/>
<path d="M5545 12160 c-11 -4 -30 -19 -42 -32 -47 -50 -239 -501 -227 -532 13
-34 40 -37 321 -30 337 9 312 -4 337 164 9 63 29 181 43 262 21 120 24 150 13
163 -10 13 -45 15 -219 14 -113 0 -215 -4 -226 -9z"/>
<path d="M6082 12146 c-19 -25 -48 -191 -74 -428 -18 -159 -42 -148 317 -148
359 0 335 -11 317 148 -26 237 -55 403 -74 428 l-19 24 -224 0 -224 0 -19 -24z"/>
<path d="M6660 12155 c-11 -13 -9 -40 13 -163 14 -81 34 -199 43 -262 25 -168
0 -155 337 -164 282 -7 308 -5 321 30 14 36 -190 499 -238 544 -27 25 -29 25
-245 28 -189 3 -219 1 -231 -13z"/>
<path d="M4983 12133 c-49 -34 -75 -64 -185 -213 -95 -128 -202 -294 -212
-327 -4 -13 -2 -24 6 -29 7 -5 130 -7 273 -5 274 3 295 6 323 52 7 10 39 82
72 159 33 77 85 190 115 250 30 60 55 116 55 125 0 13 -28 15 -203 15 l-204 0
-40 -27z"/>
<path d="M7220 12145 c0 -9 25 -65 55 -125 30 -60 82 -173 115 -250 33 -77 65
-149 72 -159 28 -46 49 -49 323 -52 143 -2 266 0 273 5 8 5 10 16 6 29 -10 33
-117 199 -212 327 -110 149 -136 179 -185 213 l-40 27 -204 0 c-175 0 -203 -2
-203 -15z"/>
<path d="M4553 12141 c-65 -11 -115 -51 -303 -240 -180 -180 -304 -325 -297
-345 5 -15 125 -19 325 -11 143 6 166 10 195 29 17 12 76 87 131 166 54 80
143 200 197 268 55 68 99 127 99 133 0 10 -282 10 -347 0z"/>
<path d="M7750 12142 c0 -6 44 -66 99 -134 54 -68 143 -188 197 -268 55 -79
114 -154 131 -166 29 -19 52 -23 195 -29 200 -8 320 -4 325 11 11 34 -435 504
-531 560 -49 28 -53 28 -233 32 -125 3 -183 1 -183 -6z"/>
<path d="M4195 12131 c-101 -7 -124 -17 -261 -119 -181 -134 -494 -414 -520
-465 l-16 -30 204 7 c152 6 211 12 236 23 19 9 83 72 144 139 60 68 183 195
274 282 90 87 164 161 164 165 0 8 -88 7 -225 -2z"/>
<path d="M8230 12134 c0 -5 72 -78 160 -163 89 -84 212 -211 275 -281 62 -70
129 -134 147 -143 25 -11 85 -17 236 -23 l204 -7 -16 31 c-43 83 -567 520
-679 567 -37 15 -327 31 -327 19z"/>
<path d="M3830 12110 c-50 -5 -85 -17 -147 -50 -185 -98 -739 -526 -721 -556
11 -16 305 4 343 24 18 9 98 76 177 149 171 157 255 227 404 339 62 46 115 88
119 94 7 11 -69 11 -175 0z"/>
<path d="M8644 12111 c4 -6 58 -49 120 -95 149 -112 233 -182 404 -339 79 -73
159 -140 177 -149 38 -20 332 -40 343 -24 19 32 -556 473 -733 561 -86 42 -95
45 -204 51 -85 5 -112 4 -107 -5z"/>
<path d="M3575 12089 c-33 -4 -78 -15 -99 -24 -29 -12 -41 -14 -46 -5 -17 28
-123 -19 -345 -153 -249 -150 -645 -430 -645 -456 0 -11 93 4 121 20 27 14
108 71 164 114 60 47 152 110 135 93 -8 -8 -61 -52 -117 -97 -55 -45 -104 -89
-107 -97 -5 -13 8 -14 97 -8 56 3 116 13 133 21 17 7 89 62 160 120 164 135
311 244 497 369 81 54 147 102 147 106 0 9 -11 9 -95 -3z"/>
<path d="M8980 12092 c0 -4 66 -52 148 -106 185 -125 332 -234 496 -369 71
-58 143 -113 160 -120 17 -8 77 -18 133 -21 89 -6 102 -5 97 8 -3 8 -52 52
-107 97 -174 141 -146 127 63 -29 47 -35 98 -71 113 -79 35 -17 127 -33 127
-22 0 20 -323 254 -540 391 -273 172 -431 249 -450 219 -4 -7 -24 -5 -61 8
-58 20 -179 36 -179 23z"/>
<path d="M5468 11490 c-252 -6 -241 0 -292 -159 -72 -223 -156 -538 -156 -585
0 -56 1 -56 376 -56 367 0 389 3 414 50 5 10 17 86 25 167 8 81 24 232 36 334
12 103 19 198 16 211 -9 35 -47 48 -135 46 -42 -1 -170 -5 -284 -8z"/>
<path d="M6018 11485 c-14 -8 -31 -29 -37 -47 -12 -37 -61 -556 -61 -643 0
-46 4 -60 25 -80 l24 -25 356 0 356 0 24 25 c21 20 25 34 25 80 0 88 -49 606
-61 643 -19 59 -36 62 -346 62 -223 -1 -283 -4 -305 -15z"/>
<path d="M6793 11491 c-12 -6 -25 -22 -29 -37 -4 -14 3 -110 15 -213 12 -102
28 -253 36 -334 8 -82 20 -157 25 -168 25 -46 47 -49 414 -49 395 0 383 -3
373 79 -8 59 -94 378 -147 543 -57 180 -55 178 -258 178 -86 0 -213 2 -282 5
-71 3 -135 1 -147 -4z"/>
<path d="M4713 11480 l-172 -5 -36 -35 c-41 -39 -174 -301 -275 -539 -59 -139
-71 -185 -56 -210 5 -8 99 -11 334 -11 424 0 393 -16 462 240 23 85 66 230 96
323 58 175 66 223 43 238 -14 9 -99 9 -396 -1z"/>
<path d="M7541 11482 c-23 -17 -15 -64 43 -239 30 -93 73 -238 96 -323 46
-171 56 -192 103 -220 30 -19 53 -20 359 -20 235 0 329 3 334 11 15 25 3 71
-56 210 -112 263 -236 503 -280 543 l-40 36 -108 0 c-60 0 -183 3 -273 6 -100
3 -169 2 -178 -4z"/>
<path d="M4105 11470 c-104 -4 -196 -8 -203 -9 -43 -4 -165 -160 -324 -416
-128 -206 -190 -323 -186 -353 l3 -27 115 -3 c63 -1 201 1 307 6 l192 8 35 33
c22 22 51 73 86 154 29 67 105 225 168 351 89 176 113 233 105 245 -12 19 -40
20 -298 11z"/>
<path d="M8251 11467 c-6 -6 -11 -15 -11 -21 0 -5 51 -111 113 -235 63 -124
138 -281 167 -348 35 -81 64 -132 86 -154 l35 -33 192 -8 c106 -5 244 -7 307
-6 l115 3 3 28 c7 61 -346 627 -451 724 -42 38 -49 41 -118 47 -170 13 -426
15 -438 3z"/>
<path d="M3475 11450 c-153 -8 -166 -14 -251 -102 -176 -182 -504 -626 -504
-683 l0 -27 248 7 c271 8 293 12 335 68 13 18 52 82 87 142 78 135 187 304
291 451 44 62 79 121 79 133 0 20 -5 21 -77 19 -43 0 -137 -4 -208 -8z"/>
<path d="M8890 11439 c0 -12 31 -65 68 -118 112 -157 171 -247 268 -411 51
-85 104 -171 118 -191 43 -62 63 -66 339 -74 l247 -7 0 21 c0 30 -19 65 -92
168 -202 291 -429 561 -502 600 -20 10 -79 18 -190 24 -252 13 -256 13 -256
-12z"/>
<path d="M3020 11428 c-116 -8 -140 -12 -178 -34 -117 -69 -680 -709 -670
-763 4 -17 -13 -17 255 -5 111 5 148 10 171 25 34 20 65 58 200 247 84 117
206 269 360 451 59 71 65 92 25 90 -16 -1 -89 -6 -163 -11z"/>
<path d="M9440 11427 c0 -9 24 -44 53 -78 153 -182 275 -334 359 -451 135
-189 166 -227 200 -247 23 -15 60 -20 171 -25 268 -12 251 -12 255 5 10 54
-554 696 -670 762 -35 21 -62 26 -148 31 -58 4 -131 9 -162 12 -48 5 -58 3
-58 -9z"/>
<path d="M2620 11401 c-83 -7 -81 -6 -165 -70 -166 -126 -685 -681 -685 -733
0 -14 259 2 290 17 32 17 77 65 181 195 115 144 197 237 376 427 84 89 153
164 153 167 0 7 -41 6 -150 -3z"/>
<path d="M9880 11404 c0 -3 67 -77 148 -163 178 -188 270 -292 381 -431 104
-129 149 -178 181 -195 31 -15 290 -31 290 -17 0 19 -88 127 -233 287 -228
252 -461 472 -532 500 -33 14 -235 30 -235 19z"/>
<path d="M2368 11371 c-47 -10 -67 -23 -196 -134 -202 -174 -642 -631 -642
-667 0 -12 -2 -12 85 0 82 12 73 5 256 210 175 197 308 335 433 451 55 50 110
104 124 120 l24 29 -24 -1 c-12 -1 -39 -5 -60 -8z"/>
<path d="M10221 11352 c14 -16 70 -71 125 -121 125 -116 258 -254 433 -451
183 -205 174 -198 256 -210 87 -12 85 -12 85 0 0 36 -445 498 -650 674 -132
113 -146 121 -219 131 l-55 7 25 -30z"/>
<path d="M4440 10591 c-318 -7 -317 -7 -357 -78 -46 -82 -239 -708 -250 -809
-5 -44 -2 -55 16 -73 21 -21 23 -21 394 -15 403 7 412 9 445 64 10 16 30 100
46 187 15 87 50 264 77 393 27 129 49 251 49 271 0 70 7 69 -420 60z"/>
<path d="M5017 10582 c-43 -27 -62 -81 -106 -302 -49 -249 -101 -546 -101
-578 0 -13 13 -37 30 -53 l29 -30 398 3 c437 3 434 3 462 66 8 15 21 145 32
302 10 151 23 334 29 407 10 113 9 136 -4 161 -8 16 -23 32 -31 36 -9 3 -173
6 -363 6 -311 -1 -350 -2 -375 -18z"/>
<path d="M5931 10572 c-21 -21 -30 -41 -35 -82 -6 -52 -27 -393 -42 -672 l-6
-127 30 -31 30 -30 416 0 415 0 28 24 28 25 -2 128 c-3 137 -29 592 -39 683
-5 41 -14 61 -35 82 l-27 28 -367 0 -367 0 -27 -28z"/>
<path d="M6892 10593 c-7 -3 -19 -18 -28 -35 -13 -25 -14 -47 -4 -161 6 -73
19 -256 29 -407 11 -157 24 -287 32 -302 28 -63 25 -63 462 -66 l398 -3 29 30
c17 16 30 40 30 54 0 76 -135 769 -161 822 -35 76 -33 75 -426 74 -191 0 -354
-3 -361 -6z"/>
<path d="M7816 10585 c-34 -17 -31 -67 23 -322 27 -131 62 -310 77 -397 30
-168 47 -211 94 -232 16 -8 155 -14 397 -18 371 -6 373 -6 394 15 18 18 21 29
16 73 -12 108 -206 731 -252 812 -41 70 -49 71 -409 76 -212 2 -325 0 -340 -7z"/>
<path d="M3443 10571 c-114 -7 -133 -20 -190 -127 -98 -184 -312 -713 -315
-779 -2 -63 4 -65 211 -65 102 0 258 3 346 7 l160 6 36 36 c31 32 40 55 78
191 24 85 84 276 133 425 74 222 87 273 79 292 l-11 23 -217 -2 c-120 -1 -259
-4 -310 -7z"/>
<path d="M8669 10557 c-9 -19 5 -69 79 -293 49 -148 109 -339 133 -424 38
-136 47 -159 78 -191 l36 -36 160 -6 c88 -4 244 -7 346 -7 208 0 213 2 211 65
-3 66 -225 616 -320 790 -56 103 -72 110 -238 118 -75 4 -213 7 -306 7 -166 0
-169 0 -179 -23z"/>
<path d="M2740 10551 c-93 -7 -116 -22 -174 -110 -91 -139 -311 -569 -381
-745 -22 -57 -25 -73 -16 -93 l11 -24 273 6 c149 3 283 8 297 11 50 11 88 62
136 188 73 189 170 418 241 569 36 76 66 152 67 170 l1 32 -190 1 c-104 0
-224 -2 -265 -5z"/>
<path d="M9454 10547 c-8 -22 10 -75 61 -177 49 -99 183 -413 249 -586 48
-126 86 -177 136 -188 14 -3 148 -8 297 -11 l273 -6 11 24 c9 20 6 36 -16 93
-71 180 -319 661 -398 772 -59 82 -64 83 -352 89 -228 5 -255 4 -261 -10z"/>
<path d="M2210 10531 c-109 -8 -126 -15 -173 -73 -137 -171 -503 -814 -495
-871 3 -22 3 -22 218 -19 118 2 229 8 247 13 42 13 72 50 114 140 74 161 242
492 318 624 44 78 82 152 83 165 l3 25 -110 1 c-60 1 -153 -2 -205 -5z"/>
<path d="M10126 10532 c-9 -16 10 -58 93 -202 69 -119 237 -450 310 -609 42
-90 72 -127 114 -140 18 -5 129 -11 247 -13 215 -3 215 -3 218 19 4 28 -145
319 -268 523 -169 281 -244 384 -295 405 -41 18 -409 32 -419 17z"/>
<path d="M1820 10508 c-87 -8 -121 -15 -142 -29 -99 -71 -587 -836 -588 -921
0 -16 10 -18 78 -17 42 0 116 4 164 7 113 9 122 18 228 220 91 173 247 437
358 605 40 60 72 117 72 128 0 21 7 21 -170 7z"/>
<path d="M10660 10502 c0 -11 32 -69 72 -129 111 -168 267 -432 358 -605 106
-202 115 -211 228 -220 48 -3 122 -7 165 -7 67 -1 77 1 77 17 -1 85 -489 851
-588 920 -19 14 -52 21 -117 26 -49 4 -114 9 -142 13 -48 5 -53 4 -53 -15z"/>
<path d="M1516 10479 c-73 -11 -101 -35 -221 -194 -211 -281 -501 -746 -477
-766 4 -3 45 -3 91 2 68 6 88 12 107 31 13 12 64 95 115 183 111 193 212 354
315 500 134 191 164 236 164 246 0 10 -11 10 -94 -2z"/>
<path d="M11040 10482 c0 -11 28 -53 164 -247 103 -146 204 -307 315 -500 51
-88 102 -171 115 -183 19 -19 39 -25 107 -31 46 -5 87 -5 91 -2 31 26 -418
717 -578 890 -44 48 -62 60 -94 65 -22 3 -58 9 -80 12 -24 3 -40 2 -40 -4z"/>
<path d="M5905 9516 c-68 -30 -71 -48 -90 -574 -12 -363 -13 -429 -1 -457 28
-65 27 -65 513 -65 416 0 440 1 470 20 52 31 54 49 37 504 -18 528 -21 543
-91 573 -46 19 -794 18 -838 -1z"/>
<path d="M3923 9511 c-84 -6 -94 -8 -122 -35 -17 -16 -37 -50 -45 -75 -38
-117 -166 -810 -166 -897 0 -35 6 -51 25 -70 l25 -25 413 3 c459 3 451 2 482
71 9 18 28 152 45 307 17 151 42 357 56 458 27 191 26 220 -6 252 -19 19 -33
20 -317 18 -164 -1 -339 -4 -390 -7z"/>
<path d="M4828 9504 c-15 -8 -35 -28 -43 -45 -23 -44 -63 -337 -110 -802 -16
-162 -10 -203 33 -226 14 -7 165 -11 462 -11 l442 0 33 33 c20 20 36 47 39 68
6 42 36 754 36 867 0 75 -2 85 -25 107 l-24 25 -408 0 c-341 -1 -412 -3 -435
-16z"/>
<path d="M6955 9495 c-24 -23 -29 -48 -26 -120 18 -515 34 -838 42 -867 5 -20
23 -48 40 -62 l31 -26 439 0 c296 0 447 4 461 11 43 23 49 64 33 226 -47 465
-87 758 -110 802 -31 61 -33 61 -480 61 l-406 0 -24 -25z"/>
<path d="M8020 9500 c-32 -32 -33 -61 -6 -252 14 -101 39 -307 56 -458 17
-155 36 -289 45 -307 31 -69 23 -68 482 -71 l413 -3 25 25 c19 19 25 35 25 70
0 85 -123 752 -165 893 -8 28 -28 62 -45 78 -29 28 -38 30 -133 36 -56 4 -231
7 -389 8 -274 1 -289 0 -308 -19z"/>
<path d="M3138 9501 l-217 -6 -30 -29 c-36 -34 -59 -90 -106 -256 -71 -247
-175 -684 -175 -734 0 -13 9 -35 21 -50 l20 -26 292 1 c388 1 457 7 492 39 37
34 41 47 76 249 27 155 56 305 131 664 20 99 20 99 1 125 -20 27 -21 27 -154
28 -74 0 -232 -2 -351 -5z"/>
<path d="M9011 9484 c-11 -15 -21 -33 -21 -40 0 -8 22 -116 49 -241 27 -126
63 -309 80 -408 53 -300 58 -318 92 -351 27 -26 39 -30 117 -36 48 -3 218 -7
378 -7 284 -1 291 0 310 20 28 32 23 98 -26 303 -90 384 -173 669 -208 715
-44 60 -38 59 -408 66 l-342 6 -21 -27z"/>
<path d="M2233 9481 c-117 -7 -129 -14 -173 -101 -66 -131 -280 -818 -283
-911 -4 -86 -16 -83 342 -77 288 5 315 7 340 25 40 30 56 73 105 288 25 110
80 320 121 466 63 220 74 270 66 292 l-11 27 -202 -2 c-112 -1 -249 -4 -305
-7z"/>
<path d="M9900 9465 c-9 -25 -1 -62 55 -258 58 -204 92 -338 164 -641 41 -173
26 -167 413 -174 357 -6 345 -9 341 77 -4 98 -221 792 -286 915 -53 100 -38
96 -379 103 l-297 6 -11 -28z"/>
<path d="M1715 9468 c-220 -9 -227 -11 -270 -77 -65 -97 -329 -825 -341 -938
-8 -81 -17 -78 258 -75 320 4 300 -10 378 271 56 204 130 435 196 612 54 148
61 181 39 202 -9 10 -26 16 -38 15 -12 0 -112 -5 -222 -10z"/>
<path d="M10675 9463 c-22 -21 -15 -55 39 -202 66 -177 140 -408 196 -612 78
-281 58 -267 378 -271 274 -3 266 -5 258 72 -10 96 -217 686 -307 876 -21 45
-52 93 -68 107 -28 23 -39 25 -178 31 -81 3 -183 8 -225 11 -62 3 -80 1 -93
-12z"/>
<path d="M1119 9441 c-57 -4 -83 -11 -99 -26 -30 -26 -133 -240 -215 -445 -90
-223 -197 -543 -193 -577 l3 -28 100 -3 c55 -1 138 1 185 5 80 8 85 10 106 40
11 17 60 150 108 295 48 145 116 335 152 423 99 243 117 293 111 309 -7 17
-95 19 -258 7z"/>
<path d="M11274 9436 c-7 -18 9 -65 110 -311 36 -88 104 -278 152 -423 48
-145 97 -278 108 -295 21 -30 26 -32 106 -40 47 -4 130 -6 185 -5 100 3 100 3
103 29 8 71 -242 735 -356 943 -56 102 -59 104 -244 112 -143 6 -158 5 -164
-10z"/>
<path d="M834 9421 c-40 -4 -69 -13 -83 -25 -77 -69 -431 -918 -431 -1032 l0
-25 83 6 c114 9 120 10 140 44 10 17 40 97 68 178 73 216 151 413 245 626 46
104 84 199 84 213 0 26 4 26 -106 15z"/>
<path d="M11710 9406 c0 -14 38 -109 84 -213 94 -213 172 -410 245 -626 28
-81 58 -161 68 -178 20 -34 26 -35 141 -44 l82 -6 0 25 c0 86 -234 678 -368
930 -26 49 -58 97 -72 107 -16 11 -53 19 -102 23 -77 6 -78 6 -78 -18z"/>
<path d="M3954 8301 c-378 -7 -364 -4 -397 -74 -32 -67 -103 -818 -98 -1020 1
-17 12 -40 30 -58 l29 -29 427 0 c470 0 469 0 502 63 12 24 18 74 24 202 5 94
16 289 26 435 9 146 17 302 17 347 1 77 -1 84 -26 110 -33 32 -35 32 -534 24z"/>
<path d="M4714 8300 c-37 -15 -71 -65 -78 -117 -17 -133 -60 -935 -51 -967 12
-42 30 -68 57 -82 22 -11 108 -14 473 -14 486 0 482 0 521 57 18 26 20 62 29
503 6 261 7 497 4 524 -5 39 -13 55 -38 78 l-31 28 -433 -1 c-237 0 -441 -4
-453 -9z"/>
<path d="M5861 8298 c-13 -7 -33 -25 -44 -40 -19 -25 -21 -49 -28 -270 -4
-134 -8 -364 -8 -513 0 -292 1 -300 55 -336 28 -18 51 -19 488 -19 442 0 460
1 491 20 59 36 59 35 51 553 -4 260 -11 492 -15 516 -5 25 -20 54 -35 70 l-26
26 -453 3 c-346 1 -458 -1 -476 -10z"/>
<path d="M7019 8282 c-23 -21 -33 -40 -38 -73 -3 -24 -2 -260 4 -524 9 -445
11 -482 29 -508 39 -57 35 -57 521 -57 365 0 451 3 473 14 26 14 42 36 56 80
11 32 -36 892 -53 983 -6 30 -20 56 -40 77 l-31 31 -445 3 -444 3 -32 -29z"/>
<path d="M8204 8302 c-12 -2 -32 -14 -45 -28 -30 -32 -30 -76 -6 -454 10 -146
21 -341 26 -435 6 -128 12 -178 24 -202 33 -63 32 -63 502 -63 l427 0 29 29
c30 31 31 37 29 151 -2 132 -49 652 -75 828 -14 100 -44 157 -88 166 -26 6
-791 13 -823 8z"/>
<path d="M2729 8291 c-119 -7 -132 -13 -160 -77 -38 -85 -129 -770 -129 -971
0 -62 3 -76 24 -100 l24 -28 389 3 c315 3 392 6 410 18 47 30 54 54 69 251 16
224 40 473 59 638 22 177 20 221 -10 250 l-24 25 -273 -2 c-150 -1 -321 -4
-379 -7z"/>
<path d="M9246 8277 c-22 -22 -26 -35 -26 -84 0 -32 5 -89 10 -128 17 -135 40
-372 59 -618 15 -184 24 -255 36 -273 34 -52 32 -52 448 -56 l389 -3 24 28
c21 24 24 38 24 100 0 203 -91 886 -129 973 -34 77 -24 75 -439 81 l-370 6
-26 -26z"/>
<path d="M1957 8280 l-189 -5 -24 -28 c-13 -15 -30 -51 -39 -80 -36 -126 -110
-591 -136 -858 -12 -120 -12 -128 7 -160 l20 -34 336 0 336 0 25 23 c32 30 44
78 57 232 19 207 67 586 105 812 6 35 -12 86 -35 98 -19 10 -125 10 -463 0z"/>
<path d="M10228 8278 c-35 -27 -38 -60 -17 -200 47 -315 61 -424 88 -697 21
-206 28 -231 82 -258 18 -9 110 -13 347 -13 l322 0 21 33 c18 28 20 42 15 114
-19 267 -116 859 -156 950 -31 71 -29 70 -375 78 -249 5 -313 4 -327 -7z"/>
<path d="M1274 8270 c-208 -6 -210 -7 -243 -94 -60 -161 -188 -938 -167 -1019
14 -59 14 -59 295 -51 152 4 261 11 269 17 32 25 45 80 68 271 25 212 73 517
105 675 37 183 26 212 -82 209 -35 -1 -146 -5 -245 -8z"/>
<path d="M11046 8261 c-22 -24 -20 -74 9 -226 40 -210 73 -426 99 -641 22
-191 36 -246 68 -271 8 -6 117 -13 269 -17 281 -8 281 -8 295 51 22 86 -116
905 -174 1036 -32 73 -36 74 -308 81 -224 5 -243 4 -258 -13z"/>
<path d="M640 8253 c-25 -3 -53 -11 -62 -20 -26 -23 -52 -100 -92 -273 -90
-388 -150 -803 -122 -848 5 -9 57 -12 190 -12 162 0 185 2 199 18 27 29 35 63
61 263 30 218 72 459 116 657 51 229 55 222 -114 220 -72 -1 -151 -3 -176 -5z"/>
<path d="M11697 8246 c-12 -31 -8 -73 23 -208 44 -198 86 -439 116 -657 26
-200 34 -234 61 -263 14 -16 37 -18 199 -18 133 0 185 3 190 12 28 45 -32 460
-122 848 -20 85 -45 178 -55 206 -32 85 -34 86 -232 92 -158 4 -174 3 -180
-12z"/>
<path d="M378 8241 c-47 -3 -89 -8 -92 -11 -57 -58 -226 -855 -226 -1067 l0
-73 44 0 c23 0 71 3 105 6 54 6 64 11 76 33 7 14 25 109 40 210 35 243 67 414
121 650 43 187 51 253 29 256 -5 1 -49 -1 -97 -4z"/>
<path d="M12164 8241 c-11 -11 -1 -76 40 -254 54 -234 86 -406 121 -648 15
-101 33 -196 40 -210 12 -22 22 -27 76 -33 34 -3 82 -6 105 -6 l44 0 0 73 c0
128 -71 530 -146 827 -43 173 -70 239 -98 245 -30 6 -176 11 -182 6z"/>
<path d="M3789 7000 c-262 -5 -289 -7 -308 -24 -44 -40 -46 -63 -46 -586 0
-536 -1 -524 55 -575 21 -19 38 -20 446 -23 368 -2 427 -1 454 13 64 33 62 10
60 591 -1 583 0 572 -65 600 -36 15 -30 15 -596 4z"/>
<path d="M4643 6995 c-17 -7 -40 -28 -50 -47 -17 -31 -18 -70 -18 -553 0 -499
1 -521 20 -549 37 -55 45 -56 520 -56 479 0 490 1 519 59 14 26 16 97 16 546
0 574 1 568 -65 599 -29 14 -92 16 -472 16 -350 -1 -444 -4 -470 -15z"/>
<path d="M5843 6995 c-17 -7 -40 -28 -50 -47 -17 -31 -18 -69 -18 -548 0 -473
1 -518 18 -547 34 -64 29 -63 527 -63 499 0 503 1 537 62 17 31 18 69 18 548
0 479 -1 517 -18 548 -34 61 -39 62 -534 62 -359 -1 -454 -4 -480 -15z"/>
<path d="M7063 6994 c-63 -32 -63 -27 -63 -599 0 -449 2 -520 16 -546 29 -58
40 -59 519 -59 475 0 483 1 520 56 19 28 20 50 20 549 0 484 -1 522 -18 553
-33 61 -40 62 -524 62 -377 0 -442 -3 -470 -16z"/>
<path d="M8263 6995 c-63 -27 -62 -18 -63 -598 -1 -377 2 -531 10 -547 6 -11
26 -30 43 -40 30 -19 54 -20 442 -20 458 0 459 0 500 70 19 34 20 50 20 535 0
544 -1 553 -57 588 -34 22 -848 33 -895 12z"/>
<path d="M976 6991 c-126 -8 -131 -13 -147 -159 -14 -135 -7 -901 10 -953 23
-73 24 -74 294 -77 133 -2 252 0 265 3 46 11 48 34 46 595 -1 289 -3 533 -3
543 -1 9 -10 26 -21 37 -19 19 -32 20 -182 18 -90 -1 -208 -4 -262 -7z"/>
<path d="M1580 6980 c-12 -12 -25 -33 -31 -48 -25 -66 -37 -592 -20 -902 8
-152 21 -199 60 -220 13 -6 141 -10 345 -10 309 0 327 1 345 19 33 33 37 78
31 321 -4 129 -5 355 -2 501 3 147 2 278 -2 293 -4 15 -15 35 -26 46 -19 19
-35 20 -350 20 -319 0 -331 -1 -350 -20z"/>
<path d="M2473 6994 c-7 -3 -22 -21 -33 -40 -19 -29 -23 -59 -32 -212 -12
-207 -3 -799 13 -856 6 -21 21 -49 34 -62 l24 -24 391 0 c261 0 398 4 412 11
42 23 44 48 42 589 -1 283 -3 522 -3 531 -1 9 -12 28 -26 43 l-24 26 -393 -1
c-216 0 -398 -3 -405 -5z"/>
<path d="M9355 6974 c-14 -15 -25 -34 -26 -43 0 -9 -2 -248 -3 -531 -2 -541 0
-566 42 -589 14 -7 151 -11 412 -11 l391 0 24 24 c13 13 28 41 34 62 16 57 25
631 13 846 -9 163 -13 192 -31 222 -12 19 -28 37 -37 40 -9 3 -191 6 -405 6
l-390 0 -24 -26z"/>
<path d="M10382 6993 c-39 -15 -41 -43 -41 -539 1 -263 -2 -491 -6 -505 -9
-34 11 -105 36 -130 18 -18 35 -19 345 -19 204 0 332 4 345 10 38 21 50 66 60
224 17 303 6 831 -20 898 -6 15 -19 36 -31 48 -19 19 -31 20 -347 19 -181 0
-334 -3 -341 -6z"/>
<path d="M11232 6982 c-12 -12 -22 -28 -23 -34 0 -7 -2 -254 -3 -548 -2 -571
-1 -583 47 -595 12 -3 131 -5 264 -3 221 3 243 5 262 22 42 38 46 77 46 551 0
485 -4 552 -38 590 -22 25 -22 25 -278 31 -253 7 -256 7 -277 -14z"/>
<path d="M130 6981 l-84 -6 -8 -35 c-42 -192 -42 -933 0 -1085 8 -30 9 -30
106 -39 121 -11 131 -5 128 81 -1 32 -3 285 -4 563 -2 278 -7 511 -11 518 -5
6 -16 11 -25 10 -9 -1 -55 -4 -102 -7z"/>
<path d="M343 6953 c-25 -60 -35 -300 -30 -678 4 -305 8 -357 24 -405 l18 -55
189 -3 c124 -2 193 1 200 8 14 14 16 1115 3 1148 -10 22 -13 22 -199 22 l-189
0 -16 -37z"/>
<path d="M11903 6968 c-13 -33 -11 -1134 3 -1148 7 -7 76 -10 200 -8 l189 3
18 55 c16 48 20 100 24 405 5 378 -5 618 -30 678 l-16 37 -189 0 c-186 0 -189
0 -199 -22z"/>
<path d="M12389 6974 c-8 -9 -10 -60 -8 -151 6 -202 5 -687 -1 -845 -6 -178
-9 -175 126 -162 97 9 98 9 106 39 27 98 45 614 29 800 -17 196 -31 309 -39
316 -4 4 -51 9 -104 11 -75 4 -101 2 -109 -8z"/>
<path d="M68 5704 c-33 -33 43 -522 142 -910 21 -83 47 -169 57 -190 l18 -39
95 -6 c52 -3 98 -4 102 -2 16 8 7 82 -26 218 -57 233 -94 424 -136 715 -27
183 -38 210 -82 210 -18 0 -62 3 -98 6 -36 3 -68 3 -72 -2z"/>
<path d="M12437 5703 c-55 -4 -59 -6 -72 -36 -7 -18 -23 -98 -35 -177 -41
-284 -81 -490 -139 -731 -30 -124 -38 -194 -23 -202 4 -2 50 -1 102 2 l95 6
18 39 c64 136 212 887 205 1038 l-3 63 -45 1 c-25 0 -71 -1 -103 -3z"/>
<path d="M367 5693 c-13 -13 -7 -154 14 -295 39 -275 130 -696 168 -783 30
-68 32 -69 229 -69 l177 -1 3 42 c2 23 -13 113 -32 200 -43 194 -89 456 -116
666 -35 261 -20 247 -255 247 -100 0 -185 -3 -188 -7z"/>
<path d="M886 5685 c-35 -36 -32 -107 20 -446 43 -283 103 -566 134 -635 30
-70 36 -71 306 -78 224 -5 243 -4 258 13 22 24 20 83 -4 206 -34 164 -69 386
-100 632 -27 219 -41 275 -72 300 -8 6 -117 13 -270 17 -222 5 -259 4 -272 -9z"/>
<path d="M11415 5693 c-239 -4 -232 2 -260 -243 -28 -248 -66 -492 -116 -745
-22 -108 -19 -159 10 -174 11 -6 111 -8 262 -4 l244 6 26 28 c32 34 54 112
103 359 68 341 111 666 95 724 -13 47 -33 56 -116 54 -37 -1 -149 -4 -248 -5z"/>
<path d="M11897 5683 c-26 -30 -35 -65 -57 -230 -28 -213 -74 -474 -116 -666
-19 -87 -34 -177 -32 -200 l3 -42 177 1 c197 0 199 1 230 71 61 137 192 846
186 1004 l-3 74 -186 3 c-167 2 -187 1 -202 -15z"/>
<path d="M1598 5680 c-28 -17 -41 -76 -34 -154 32 -330 122 -868 157 -938 33
-66 32 -65 372 -73 271 -6 310 -5 331 9 36 23 39 59 17 196 -39 247 -53 349
-81 613 -30 284 -39 318 -91 344 -30 16 -645 18 -671 3z"/>
<path d="M10381 5677 c-52 -26 -61 -60 -91 -344 -28 -264 -42 -366 -81 -613
-22 -137 -19 -173 17 -196 21 -14 60 -15 331 -9 340 8 339 7 372 73 45 90 174
934 157 1028 -4 19 -16 44 -27 55 -18 18 -35 19 -336 19 -233 0 -325 -4 -342
-13z"/>
<path d="M2460 5653 c-21 -27 -22 -35 -17 -153 7 -142 35 -393 73 -650 36
-248 42 -270 78 -306 l31 -31 145 -6 c80 -4 249 -7 375 -7 256 0 266 2 283 63
6 22 4 80 -8 178 -17 137 -48 460 -69 726 -6 72 -16 134 -25 152 -33 62 -22
61 -452 61 l-393 0 -21 -27z"/>
<path d="M3489 5651 c-28 -28 -29 -33 -29 -118 0 -140 44 -653 74 -861 14 -95
30 -132 69 -156 29 -18 823 -30 858 -12 12 6 31 23 42 38 20 27 20 29 3 280
-9 139 -23 368 -30 509 -15 279 -21 306 -76 334 -25 13 -94 15 -455 15 l-427
0 -29 -29z"/>
<path d="M4631 5654 c-47 -40 -52 -76 -41 -300 20 -395 42 -730 51 -764 5 -20
23 -49 39 -65 l31 -30 437 -3 c466 -3 476 -2 509 47 19 29 20 125 4 756 -6
245 -10 295 -24 322 -34 64 -29 63 -526 63 l-449 0 -31 -26z"/>
<path d="M5843 5664 c-18 -9 -39 -31 -49 -52 -16 -34 -17 -74 -10 -517 4 -264
11 -496 16 -516 5 -19 21 -46 36 -60 l26 -24 463 0 463 0 26 24 c15 14 31 41
36 61 6 22 11 246 13 533 l2 496 -33 33 -32 33 -463 2 c-405 3 -466 1 -494
-13z"/>
<path d="M7058 5664 c-57 -30 -61 -53 -69 -364 -16 -619 -15 -732 4 -761 33
-49 43 -50 509 -47 l437 3 31 30 c16 16 34 45 39 65 9 34 31 369 51 764 11
224 6 260 -41 300 l-31 26 -451 0 c-380 -1 -456 -3 -479 -16z"/>
<path d="M8248 5664 c-53 -28 -60 -57 -74 -334 -7 -140 -21 -369 -30 -508 -17
-251 -17 -253 3 -280 11 -15 30 -32 42 -38 35 -18 829 -6 858 12 39 24 55 61
69 156 30 208 74 721 74 861 0 85 -1 90 -29 118 l-29 29 -429 0 c-359 -1 -432
-3 -455 -16z"/>
<path d="M9362 5664 c-45 -31 -53 -66 -73 -318 -20 -250 -40 -452 -63 -641 -8
-70 -10 -121 -4 -142 17 -61 28 -63 283 -63 126 0 295 3 375 7 l145 6 31 31
c37 37 43 62 79 308 38 266 65 510 72 648 5 118 4 126 -17 153 l-21 27 -393 0
c-339 0 -395 -2 -414 -16z"/>
<path d="M324 4418 c22 -141 289 -795 397 -974 37 -59 43 -62 159 -67 63 -2
65 -1 62 21 -1 13 -38 103 -81 200 -97 219 -156 367 -233 587 -73 210 -93 254
-121 259 -12 3 -60 8 -106 11 l-84 7 7 -44z"/>
<path d="M12215 4453 c-105 -7 -100 1 -193 -268 -77 -219 -136 -368 -232 -585
-43 -96 -82 -188 -86 -204 l-7 -28 74 6 c121 11 122 12 158 70 106 176 375
834 397 974 l7 42 -34 -2 c-19 -1 -56 -3 -84 -5z"/>
<path d="M614 4425 c-29 -74 335 -990 416 -1047 20 -14 56 -19 188 -24 l162
-7 0 26 c0 14 -31 102 -69 194 -89 214 -154 392 -225 614 -30 96 -66 191 -79
210 -21 32 -27 34 -92 40 -39 4 -121 7 -183 8 -91 1 -114 -2 -118 -14z"/>
<path d="M11730 4431 c-59 -6 -66 -9 -87 -40 -13 -19 -49 -114 -79 -210 -71
-222 -136 -400 -225 -614 -38 -92 -69 -180 -69 -194 l0 -26 163 7 c131 5 167
10 187 24 72 51 403 862 412 1012 l3 45 -120 1 c-66 0 -149 -2 -185 -5z"/>
<path d="M1113 4412 c-7 -7 -13 -24 -13 -36 0 -59 126 -444 232 -711 79 -199
111 -265 145 -297 28 -27 28 -27 253 -36 138 -6 232 -6 243 -1 27 15 21 47
-42 221 -75 208 -109 315 -181 566 -32 111 -67 216 -77 234 -38 66 -43 67
-307 70 -188 2 -242 0 -253 -10z"/>
<path d="M11259 4420 c-288 -6 -273 4 -344 -250 -54 -198 -127 -427 -195 -615
-64 -177 -70 -209 -42 -224 10 -5 104 -5 242 1 225 9 225 9 253 36 34 32 66
98 145 297 106 267 232 652 232 711 0 27 -25 55 -48 52 -9 -1 -119 -5 -243 -8z"/>
<path d="M1792 4398 c-7 -7 -12 -32 -12 -57 0 -81 106 -451 223 -775 48 -135
67 -176 96 -206 l36 -37 155 -7 c85 -3 220 -7 299 -8 130 -2 145 0 157 17 8
10 14 26 14 34 0 8 -27 107 -60 220 -56 195 -105 386 -165 639 -22 93 -32 118
-58 146 l-32 33 -139 6 c-234 11 -500 9 -514 -5z"/>
<path d="M10296 4401 c-140 -8 -138 -6 -211 -310 -32 -130 -88 -345 -126 -478
-38 -132 -69 -247 -69 -255 0 -8 6 -23 14 -33 12 -17 27 -19 157 -17 79 1 214
5 299 8 l155 7 36 37 c29 30 48 71 98 210 67 186 157 476 196 631 27 106 32
178 13 197 -13 13 -361 14 -562 3z"/>
<path d="M2635 4380 c-35 -39 -26 -105 71 -490 54 -220 126 -465 147 -506 9
-18 29 -43 46 -56 l29 -25 343 -7 344 -7 23 26 c12 14 22 34 22 43 0 9 -18 98
-40 197 -36 167 -85 418 -125 646 -9 53 -25 110 -35 127 -40 65 -33 64 -438
70 l-367 5 -20 -23z"/>
<path d="M9338 4391 c-149 -9 -152 -13 -207 -322 -35 -198 -63 -337 -127 -636
-18 -82 -18 -83 3 -110 l20 -28 344 3 c380 4 369 2 416 70 32 48 124 369 202
706 48 205 54 275 26 306 -17 19 -29 20 -299 18 -155 -1 -324 -4 -378 -7z"/>
<path d="M3614 4365 c-26 -26 -27 -30 -21 -103 13 -168 145 -832 177 -898 40
-78 36 -77 462 -82 l376 -5 26 26 c32 32 32 38 2 257 -14 96 -39 299 -56 450
-19 164 -37 287 -46 307 -33 69 -23 68 -481 71 l-413 3 -26 -26z"/>
<path d="M8201 4383 c-38 -7 -68 -31 -85 -67 -9 -20 -27 -139 -46 -306 -17
-150 -42 -352 -55 -449 -31 -220 -31 -226 1 -258 l26 -26 376 5 c343 4 380 6
408 22 17 10 39 31 48 46 27 47 91 342 156 724 37 223 38 259 5 291 l-24 25
-393 -1 c-216 -1 -404 -4 -417 -6z"/>
<path d="M4695 4354 c-13 -14 -25 -38 -27 -52 -5 -48 10 -211 58 -612 34 -278
42 -328 61 -356 33 -51 40 -52 469 -55 366 -3 403 -2 427 14 31 20 50 79 42
134 -3 21 -12 209 -20 418 -19 468 -18 460 -60 502 l-33 33 -446 0 -447 0 -24
-26z"/>
<path d="M7005 4347 c-42 -42 -41 -34 -60 -502 -8 -209 -17 -397 -20 -418 -8
-55 11 -114 42 -134 24 -16 61 -17 427 -14 429 3 436 4 469 55 19 28 27 78 61
356 48 401 63 564 58 612 -2 14 -14 38 -27 52 l-24 26 -447 0 -446 0 -33 -33z"/>
<path d="M5869 4341 c-19 -20 -29 -40 -30 -63 -4 -79 4 -408 15 -657 11 -247
13 -273 32 -298 39 -52 42 -53 434 -53 391 0 395 1 433 52 22 30 27 100 45
658 9 294 6 334 -32 367 l-27 23 -420 0 -421 0 -29 -29z"/>
<path d="M820 3274 c0 -69 435 -732 587 -895 34 -36 53 -49 84 -53 21 -3 57
-9 79 -12 63 -9 65 -15 -101 221 -114 161 -206 305 -328 515 -57 96 -112 185
-123 197 -14 15 -37 24 -77 28 -31 3 -71 7 -88 10 -24 3 -33 0 -33 -11z"/>
<path d="M11736 3279 c-63 -7 -85 -13 -102 -31 -13 -13 -69 -102 -125 -198
-122 -210 -214 -354 -328 -515 -166 -236 -164 -230 -101 -221 22 3 58 9 79 12
31 4 50 17 84 53 152 163 587 826 587 896 0 8 -3 14 -7 14 -5 -1 -44 -5 -87
-10z"/>
<path d="M1090 3244 c0 -81 494 -856 588 -923 21 -14 59 -21 166 -30 76 -7
141 -10 143 -7 13 12 -13 63 -88 177 -114 172 -211 335 -323 544 -53 99 -110
194 -127 210 -27 28 -37 31 -122 37 -173 12 -237 10 -237 -8z"/>
<path d="M11313 3251 c-75 -5 -86 -9 -112 -36 -17 -16 -74 -111 -127 -210
-112 -209 -209 -372 -323 -544 -75 -114 -101 -165 -88 -177 2 -3 67 0 143 7
107 9 145 16 166 30 94 67 588 842 588 923 0 13 -13 16 -82 14 -46 -1 -120 -4
-165 -7z"/>
<path d="M1547 3226 c-4 -9 1 -35 9 -58 45 -127 359 -670 471 -813 65 -82 70
-84 299 -87 l199 -3 -2 25 c-1 14 -40 93 -88 175 -48 83 -149 277 -225 431
-90 182 -148 289 -165 302 -31 25 -70 29 -311 38 -159 5 -182 4 -187 -10z"/>
<path d="M10789 3231 c-198 -9 -196 -8 -298 -231 -68 -150 -211 -425 -295
-569 -37 -63 -70 -128 -73 -144 l-6 -30 203 7 c227 8 238 11 293 78 71 88 244
370 372 607 94 173 128 252 119 276 -7 16 -38 17 -315 6z"/>
<path d="M2177 3214 c-14 -14 -6 -67 20 -132 68 -171 290 -604 379 -738 62
-93 67 -95 347 -103 133 -4 250 -3 260 1 26 13 21 46 -24 139 -84 173 -205
458 -284 668 -37 97 -82 148 -138 155 -74 9 -552 17 -560 10z"/>
<path d="M10073 3211 l-192 -6 -34 -33 c-39 -38 -40 -39 -132 -275 -69 -177
-155 -374 -224 -516 -45 -93 -50 -126 -23 -139 9 -4 126 -5 259 -1 280 8 285
10 347 103 89 135 311 567 380 739 15 39 26 82 24 100 l-3 32 -105 1 c-58 0
-191 -2 -297 -5z"/>
<path d="M2951 3186 c-10 -11 -12 -31 -8 -64 10 -79 220 -599 315 -777 52 -98
74 -110 214 -118 195 -12 493 -8 506 5 16 16 15 47 -4 99 -52 141 -133 390
-184 562 -32 108 -67 211 -77 229 -40 68 -32 67 -408 74 -311 7 -341 6 -354
-10z"/>
<path d="M9129 3191 c-187 -8 -184 -5 -264 -281 -26 -91 -83 -269 -126 -397
-44 -127 -79 -240 -79 -250 0 -40 17 -43 214 -43 105 0 242 3 304 7 143 8 161
18 219 128 97 185 301 693 311 772 8 73 8 73 -232 71 -116 -1 -272 -4 -347 -7z"/>
<path d="M3862 3179 c-48 -18 -42 -67 38 -343 77 -262 163 -518 190 -560 38
-62 50 -64 412 -68 369 -3 361 -5 360 69 -1 21 -17 108 -36 193 -19 85 -53
256 -76 380 -23 124 -49 241 -58 260 -33 67 -36 67 -443 72 -201 3 -375 1
-387 -3z"/>
<path d="M8330 3181 c-274 -5 -309 -8 -334 -24 -38 -25 -51 -62 -81 -228 -24
-132 -65 -335 -113 -564 -21 -99 -17 -134 16 -151 16 -8 120 -10 340 -6 351 5
365 7 402 68 43 69 244 713 256 818 4 37 1 57 -9 71 -18 24 -32 24 -477 16z"/>
<path d="M4844 3156 c-26 -22 -29 -30 -27 -78 4 -108 123 -736 153 -805 32
-73 33 -73 425 -73 225 0 353 4 366 11 38 20 41 51 24 263 -8 111 -21 294 -29
408 -15 217 -23 248 -70 279 -17 11 -96 15 -417 17 l-397 3 -28 -25z"/>
<path d="M7000 3171 c-80 -20 -89 -45 -105 -283 -8 -112 -22 -296 -30 -409
-17 -217 -14 -248 24 -268 13 -7 141 -11 366 -11 392 0 393 0 425 73 30 69
149 697 153 805 2 48 -1 56 -26 78 l-28 24 -377 -1 c-207 -1 -388 -4 -402 -8z"/>
<path d="M5883 3146 l-28 -25 2 -128 c3 -139 29 -607 39 -687 5 -36 14 -58 34
-78 l28 -28 367 0 367 0 28 28 c20 20 29 42 34 78 10 80 36 548 39 687 l2 128
-28 25 -28 24 -414 0 -414 0 -28 -24z"/>
<path d="M1530 2234 c0 -50 685 -734 790 -789 30 -15 130 -30 130 -19 0 4 -97
102 -215 217 -119 115 -276 277 -349 361 -191 216 -188 214 -271 226 -84 12
-85 12 -85 4z"/>
<path d="M11026 2229 c-71 -10 -74 -13 -262 -225 -73 -84 -230 -246 -349 -361
-118 -115 -215 -213 -215 -217 0 -11 100 4 130 19 105 55 790 739 790 789 0 7
-15 6 -94 -5z"/>
<path d="M1770 2203 c0 -48 527 -613 688 -736 72 -56 93 -63 220 -72 67 -5 92
-3 92 5 0 7 -66 80 -147 163 -150 155 -278 298 -393 442 -91 115 -150 173
-185 184 -41 13 -275 25 -275 14z"/>
<path d="M10715 2203 c-134 -7 -148 -16 -278 -178 -137 -170 -256 -304 -409
-462 -82 -83 -148 -156 -148 -163 0 -8 25 -10 93 -5 126 9 147 16 218 70 159
123 689 690 689 738 0 7 -35 7 -165 0z"/>
<path d="M2178 2179 c-14 -9 9 -51 78 -139 174 -227 512 -591 589 -635 31 -18
62 -25 135 -29 52 -4 125 -9 163 -12 61 -5 67 -4 67 12 0 11 -39 64 -87 119
-120 139 -253 307 -359 455 -106 150 -145 194 -182 209 -30 12 -388 30 -404
20z"/>
<path d="M10148 2171 c-93 -7 -112 -19 -189 -122 -30 -41 -107 -144 -171 -229
-64 -85 -168 -216 -232 -290 -63 -74 -116 -143 -116 -154 0 -16 6 -17 68 -12
37 3 110 8 162 12 74 4 104 11 136 29 109 63 674 705 674 766 0 10 -205 9
-332 0z"/>
<path d="M2720 2138 c0 -79 493 -712 595 -766 37 -19 431 -40 447 -24 13 13 2
33 -97 172 -94 131 -194 286 -285 444 -75 128 -116 172 -168 180 -20 3 -139 8
-264 12 l-228 6 0 -24z"/>
<path d="M9555 2151 c-184 -8 -176 -2 -305 -221 -93 -159 -181 -294 -274 -423
-89 -125 -101 -146 -88 -159 16 -16 410 5 447 25 101 53 595 686 595 762 l0
25 -117 -2 c-65 -1 -181 -4 -258 -7z"/>
<path d="M3397 2133 c-14 -13 -6 -45 24 -106 92 -181 354 -582 424 -646 36
-33 52 -40 96 -45 73 -7 441 -15 457 -9 24 9 11 43 -87 235 -54 106 -129 261
-166 344 -46 106 -77 162 -101 185 l-35 34 -162 7 c-221 9 -442 9 -450 1z"/>
<path d="M8783 2131 l-142 -6 -35 -34 c-24 -23 -55 -79 -101 -185 -37 -83
-112 -238 -166 -344 -98 -192 -111 -226 -86 -235 15 -6 383 2 456 9 73 8 114
47 239 232 178 263 316 505 310 545 -3 22 -7 22 -168 23 -91 0 -229 -2 -307
-5z"/>
<path d="M4173 2105 c-11 -29 5 -84 67 -227 108 -251 230 -486 270 -522 l37
-33 269 -7 c148 -4 277 -4 286 -1 10 4 20 15 23 25 3 10 -19 95 -49 189 -31
94 -74 238 -96 319 -49 174 -58 201 -79 226 -38 44 -53 46 -396 46 -284 0
-326 -2 -332 -15z"/>
<path d="M7785 2102 c-52 -32 -54 -37 -115 -254 -22 -81 -65 -225 -96 -319
-30 -95 -52 -180 -49 -190 4 -11 17 -22 31 -25 13 -3 143 -2 289 2 l265 9 34
35 c38 39 166 287 267 520 45 104 63 158 63 190 l1 45 -330 3 c-306 2 -332 1
-360 -16z"/>
<path d="M5037 2092 c-10 -10 -17 -29 -17 -43 0 -53 153 -598 188 -668 34 -69
34 -69 360 -73 345 -4 328 -9 318 102 -18 212 -68 623 -78 645 -24 53 -38 55
-411 55 -320 0 -345 -1 -360 -18z"/>
<path d="M5945 2085 c-29 -28 -32 -78 -16 -238 6 -51 17 -177 27 -282 18 -201
28 -239 70 -255 14 -6 149 -10 300 -10 307 0 324 3 343 62 5 18 17 112 26 208
9 96 20 222 25 279 16 171 14 208 -15 236 l-24 25 -356 0 -356 0 -24 -25z"/>
<path d="M6879 2095 c-14 -7 -31 -25 -37 -40 -7 -14 -25 -149 -42 -298 -16
-150 -32 -298 -36 -329 -9 -73 0 -106 32 -118 16 -6 133 -7 306 -3 337 8 319
0 367 146 65 197 161 556 161 600 0 13 -8 31 -18 40 -17 15 -56 17 -363 17
-274 -1 -349 -4 -370 -15z"/>
<path d="M2440 1345 c0 -8 228 -176 360 -267 132 -90 351 -225 485 -298 66
-37 89 -44 140 -46 33 -1 71 -6 85 -11 40 -16 173 -27 165 -13 -4 6 -71 53
-148 104 -148 97 -349 247 -525 390 -57 47 -118 91 -135 99 -18 8 -79 18 -137
21 l-105 7 35 -36 c19 -20 72 -66 118 -103 45 -36 82 -67 82 -69 0 -2 -28 16
-62 42 -152 110 -222 158 -254 171 -31 13 -104 20 -104 9z"/>
<path d="M10101 1335 c-34 -15 -69 -39 -229 -158 -52 -38 -95 -67 -97 -65 -3
2 23 24 57 48 33 25 91 73 127 107 l66 63 -105 -6 c-58 -4 -119 -13 -137 -21
-17 -8 -78 -52 -135 -99 -176 -143 -377 -293 -525 -390 -77 -51 -144 -98 -148
-105 -9 -13 94 -5 160 14 22 6 65 11 95 12 45 1 69 9 135 45 134 73 353 208
485 298 132 91 360 259 360 267 0 11 -77 3 -109 -10z"/>
<path d="M3005 1251 c121 -126 557 -450 700 -521 74 -36 88 -40 194 -46 79 -5
112 -4 110 4 -2 6 -58 51 -124 100 -146 110 -273 216 -425 357 -63 59 -132
115 -152 126 -31 16 -67 20 -195 25 l-158 6 50 -51z"/>
<path d="M9425 1291 c-33 -4 -73 -14 -90 -23 -16 -9 -82 -64 -145 -123 -152
-141 -279 -247 -425 -357 -66 -49 -122 -94 -124 -100 -2 -8 31 -9 110 -4 106
6 120 10 194 46 141 70 574 392 700 519 l49 51 -104 -2 c-58 0 -132 -4 -165
-7z"/>
<path d="M3410 1268 c0 -8 53 -66 118 -129 187 -183 470 -411 557 -450 51 -22
335 -39 335 -19 0 6 -26 35 -57 63 -121 108 -230 217 -359 358 -73 80 -148
153 -166 162 -49 22 -428 36 -428 15z"/>
<path d="M8935 1271 c-135 -7 -132 -6 -288 -178 -112 -125 -243 -256 -359
-360 -32 -28 -58 -57 -58 -63 0 -20 284 -3 335 19 86 38 366 264 558 450 64
62 117 120 117 127 0 15 -85 16 -305 5z"/>
<path d="M3956 1251 c-14 -22 183 -251 363 -423 126 -120 172 -155 220 -167
58 -15 354 -18 358 -4 3 7 -43 72 -102 145 -58 73 -147 194 -198 268 -50 74
-106 144 -124 156 -26 17 -52 22 -160 27 -180 10 -351 9 -357 -2z"/>
<path d="M8293 1251 c-71 -5 -98 -11 -120 -27 -15 -11 -70 -81 -120 -155 -51
-74 -140 -194 -198 -267 -59 -73 -105 -138 -102 -145 4 -14 300 -11 358 4 48
12 94 47 220 167 180 172 377 401 363 423 -6 10 -248 9 -401 0z"/>
<path d="M4600 1242 c-15 -5 -12 -39 6 -75 29 -56 191 -289 269 -387 113 -142
108 -140 353 -140 237 0 226 -8 158 121 -25 46 -76 157 -115 246 -39 89 -76
171 -83 182 -28 46 -58 50 -326 53 -138 2 -257 2 -262 0z"/>
<path d="M7750 1240 c-185 -4 -240 -8 -258 -20 -25 -17 -41 -48 -132 -255 -34
-77 -79 -173 -101 -213 -63 -119 -73 -112 162 -112 240 0 240 0 339 120 74 92
213 288 264 375 51 85 46 119 -17 113 -12 -1 -128 -5 -257 -8z"/>
<path d="M5298 1229 c-29 -17 -21 -62 36 -202 90 -221 149 -340 185 -370 l33
-27 213 0 c176 0 215 3 225 15 10 12 4 65 -30 267 -23 139 -48 265 -56 280 -8
15 -24 30 -37 32 -52 11 -553 15 -569 5z"/>
<path d="M6955 1230 c-104 -3 -191 -7 -192 -8 -18 -16 -38 -100 -73 -310 -34
-202 -40 -255 -30 -267 10 -12 49 -15 225 -15 l213 0 33 27 c21 18 50 65 82
133 80 171 157 367 157 399 0 55 7 54 -415 41z"/>
<path d="M6015 1210 c-21 -23 -19 -52 20 -339 19 -130 32 -194 44 -211 l18
-25 226 -3 225 -2 20 24 c14 19 26 76 51 253 17 125 31 242 31 259 0 63 -5 64
-327 64 -277 0 -291 -1 -308 -20z"/>
<path d="M3515 662 c16 -18 296 -144 476 -216 394 -156 566 -200 824 -212 66
-3 167 -8 224 -11 75 -4 102 -2 97 6 -9 15 3 14 51 -3 31 -11 203 -23 247 -17
5 0 -35 32 -90 70 -98 68 -138 101 -290 233 -49 44 -88 69 -108 72 -63 10
-336 16 -336 8 0 -24 191 -160 373 -267 54 -31 96 -59 93 -62 -10 -10 -223
110 -376 211 -85 57 -165 108 -177 115 -12 6 -88 13 -170 17 l-148 5 30 -26
c17 -14 95 -64 175 -110 80 -47 140 -85 135 -85 -9 1 -47 20 -325 167 l-115
61 -110 7 -110 7 24 -26 25 -27 -40 15 c-21 8 -56 21 -76 30 -20 9 -85 20
-145 25 -59 6 -121 13 -138 17 -21 5 -27 3 -20 -4z m1600 -412 c3 -6 -1 -7 -9
-4 -18 7 -21 14 -7 14 6 0 13 -4 16 -10z"/>
<path d="M9090 658 c-14 -5 -68 -11 -120 -13 -62 -2 -109 -9 -135 -20 -22 -9
-58 -23 -79 -31 l-40 -15 25 27 24 26 -110 -7 -110 -7 -115 -61 c-278 -147
-316 -166 -325 -167 -5 0 55 38 135 85 80 46 159 96 175 110 l30 26 -148 -5
c-82 -4 -158 -11 -170 -17 -12 -7 -92 -58 -177 -115 -135 -89 -353 -214 -374
-214 -19 0 11 22 81 60 151 83 383 248 383 272 0 8 -273 2 -336 -8 -20 -3 -59
-28 -108 -72 -152 -132 -192 -165 -290 -233 -55 -38 -95 -70 -90 -70 44 -6
216 6 247 17 48 17 60 18 51 3 -5 -8 22 -10 97 -6 57 3 158 8 224 11 247 11
396 47 755 186 186 71 537 226 546 241 7 12 -15 10 -46 -3z m-1530 -402 c0 -2
-7 -7 -16 -10 -8 -3 -12 -2 -9 4 6 10 25 14 25 6z"/>
<path d="M5070 568 c0 -34 307 -292 409 -343 47 -24 59 -25 173 -23 l122 3
-67 74 c-37 41 -96 116 -132 166 -99 140 -75 129 -306 133 -159 3 -199 1 -199
-10z"/>
<path d="M5574 567 c-3 -8 3 -32 14 -54 30 -58 131 -196 189 -256 l50 -54 99
-6 c204 -14 204 -14 176 74 -12 35 -33 109 -47 164 -15 55 -34 107 -43 117
-25 24 -429 38 -438 15z"/>
<path d="M6759 573 c-85 -3 -110 -7 -122 -21 -9 -9 -27 -62 -42 -117 -14 -55
-35 -129 -47 -164 -28 -88 -28 -88 176 -74 l99 6 50 54 c58 60 159 198 189
256 36 72 47 70 -303 60z"/>
<path d="M7168 560 c-14 -11 -55 -62 -92 -113 -36 -51 -96 -127 -133 -168
l-67 -74 122 -3 c114 -2 126 -1 173 23 101 50 409 309 409 343 0 9 -45 12
-194 12 -177 0 -195 -2 -218 -20z"/>
<path d="M6100 555 c-13 -16 -7 -53 36 -230 33 -135 34 -135 189 -135 102 0
126 3 143 18 20 16 50 118 82 275 18 89 24 87 -225 87 -173 0 -215 -3 -225
-15z"/>
<path d="M4796 190 c95 -37 579 -122 845 -149 555 -55 813 -55 1368 0 266 27
750 112 845 149 21 8 -87 5 -194 -7 -55 -5 -167 -10 -400 -15 -81 -2 -139 -8
-164 -18 -31 -12 -40 -12 -43 -2 -3 8 -35 12 -111 12 l-106 0 -68 -41 c-75
-45 -100 -48 -43 -5 19 15 35 31 35 37 0 12 -216 12 -240 -1 -10 -5 -29 -29
-43 -52 -27 -47 -67 -88 -67 -70 0 6 10 31 21 56 35 71 28 76 -106 76 -134 0
-141 -5 -106 -76 11 -25 21 -50 21 -56 0 -18 -40 23 -67 70 -14 23 -33 47 -43
52 -22 12 -240 14 -240 3 0 -5 19 -25 42 -46 41 -37 42 -37 10 -22 -18 9 -54
29 -79 45 -44 28 -53 30 -154 30 -77 0 -109 -4 -112 -12 -3 -10 -12 -10 -43 2
-25 10 -83 16 -164 18 -233 5 -345 10 -400 15 -107 12 -215 15 -194 7z"/>
</g>
</svg>
